<?xml version="1.0" encoding="UTF-8" standalone="no"?>
<!DOCTYPE svg PUBLIC "-//W3C//DTD SVG 1.1//EN"
 "http://www.w3.org/Graphics/SVG/1.1/DTD/svg11.dtd">
<!-- Generated by graphviz version 2.28.0 (20110509.1545)
 -->
<!-- Title: _anonymous_0 Pages: 1 -->
<svg width="794pt" height="746pt"
 viewBox="0.00 0.00 794.16 745.63" xmlns="http://www.w3.org/2000/svg" xmlns:xlink="http://www.w3.org/1999/xlink">
<g id="graph1" class="graph" transform="scale(1 1) rotate(0) translate(4 741.625)">
<title>_anonymous_0</title>
<polygon fill="white" stroke="white" points="-4,5 -4,-741.625 791.16,-741.625 791.16,5 -4,5"/>
<!-- DK3BT -->
<g id="node1" class="node"><title>DK3BT</title>
<ellipse fill="palegreen" stroke="black" cx="78.1116" cy="-388.639" rx="42.2295" ry="18"/>
<text text-anchor="middle" x="78.1116" y="-383.039" font-family="Times,serif" font-size="14.00">DK3BT</text>
</g>
<!-- DM1YS -->
<g id="node2" class="node"><title>DM1YS</title>
<ellipse fill="palegreen" stroke="black" cx="421.729" cy="-462.504" rx="43.1584" ry="18"/>
<text text-anchor="middle" x="421.729" y="-456.904" font-family="Times,serif" font-size="14.00">DM1YS</text>
</g>
<!-- EA4AAZ -->
<g id="node3" class="node"><title>EA4AAZ</title>
<ellipse fill="palegreen" stroke="black" cx="138.543" cy="-171.713" rx="48.3764" ry="18"/>
<text text-anchor="middle" x="138.543" y="-166.113" font-family="Times,serif" font-size="14.00">EA4AAZ</text>
</g>
<!-- G3SZG -->
<g id="node4" class="node"><title>G3SZG</title>
<ellipse fill="palegreen" stroke="black" cx="235.776" cy="-273.866" rx="41.1237" ry="18"/>
<text text-anchor="middle" x="235.776" y="-268.266" font-family="Times,serif" font-size="14.00">G3SZG</text>
</g>
<!-- HK3UA -->
<g id="node5" class="node"><title>HK3UA</title>
<ellipse fill="palegreen" stroke="black" cx="592.36" cy="-626.206" rx="43.1445" ry="18"/>
<text text-anchor="middle" x="592.36" y="-620.606" font-family="Times,serif" font-size="14.00">HK3UA</text>
</g>
<!-- JA0EOK -->
<g id="node6" class="node"><title>JA0EOK</title>
<ellipse fill="palegreen" stroke="black" cx="514.403" cy="-287.478" rx="46.1659" ry="18"/>
<text text-anchor="middle" x="514.403" y="-281.878" font-family="Times,serif" font-size="14.00">JA0EOK</text>
</g>
<!-- PW8NM -->
<g id="node21" class="node"><title>PW8NM</title>
<ellipse fill="palegreen" stroke="black" cx="558.423" cy="-230.155" rx="45.3674" ry="18"/>
<text text-anchor="middle" x="558.423" y="-224.555" font-family="Times,serif" font-size="14.00">PW8NM</text>
</g>
<!-- JA0EOK&#45;&gt;PW8NM -->
<g id="edge2" class="edge"><title>JA0EOK&#45;&gt;PW8NM</title>
<path fill="none" stroke="black" d="M527.849,-269.967C531.348,-265.411 535.189,-260.41 538.931,-255.537"/>
<polygon fill="black" stroke="black" points="541.744,-257.621 545.059,-247.558 536.192,-253.357 541.744,-257.621"/>
</g>
<!-- JA2JNA -->
<g id="node7" class="node"><title>JA2JNA</title>
<ellipse fill="palegreen" stroke="black" cx="290.65" cy="-662.206" rx="43.956" ry="18"/>
<text text-anchor="middle" x="290.65" y="-656.606" font-family="Times,serif" font-size="14.00">JA2JNA</text>
</g>
<!-- JA7FVA -->
<g id="node10" class="node"><title>JA7FVA</title>
<ellipse fill="palegreen" stroke="black" cx="334.546" cy="-719.625" rx="44.5055" ry="18"/>
<text text-anchor="middle" x="334.546" y="-714.025" font-family="Times,serif" font-size="14.00">JA7FVA</text>
</g>
<!-- JA2JNA&#45;&gt;JA7FVA -->
<g id="edge4" class="edge"><title>JA2JNA&#45;&gt;JA7FVA</title>
<path fill="none" stroke="black" d="M303.82,-679.434C307.38,-684.09 311.307,-689.228 315.131,-694.23"/>
<polygon fill="black" stroke="black" points="312.531,-696.591 321.385,-702.41 318.092,-692.34 312.531,-696.591"/>
</g>
<!-- KW5EBB -->
<g id="node27" class="node"><title>KW5EBB</title>
<ellipse fill="bisque" stroke="black" cx="266.693" cy="-594" rx="50.6014" ry="18"/>
<text text-anchor="middle" x="266.693" y="-588.4" font-family="Times,serif" font-size="14.00">KW5EBB</text>
</g>
<!-- JA2JNA&#45;&gt;KW5EBB -->
<g id="edge6" class="edge"><title>JA2JNA&#45;&gt;KW5EBB</title>
<path fill="none" stroke="black" d="M284.356,-644.286C281.927,-637.37 279.092,-629.298 276.413,-621.672"/>
<polygon fill="black" stroke="black" points="279.645,-620.313 273.029,-612.038 273.041,-622.632 279.645,-620.313"/>
</g>
<!-- JA3FQO -->
<g id="node8" class="node"><title>JA3FQO</title>
<ellipse fill="palegreen" stroke="black" cx="63.8744" cy="-640.639" rx="45.3744" ry="18"/>
<text text-anchor="middle" x="63.8744" y="-635.039" font-family="Times,serif" font-size="14.00">JA3FQO</text>
</g>
<!-- JA3PCQ -->
<g id="node9" class="node"><title>JA3PCQ</title>
<ellipse fill="palegreen" stroke="black" cx="636.255" cy="-683.625" rx="45.075" ry="18"/>
<text text-anchor="middle" x="636.255" y="-678.025" font-family="Times,serif" font-size="14.00">JA3PCQ</text>
</g>
<!-- JA3PCQ&#45;&gt;HK3UA -->
<g id="edge8" class="edge"><title>JA3PCQ&#45;&gt;HK3UA</title>
<path fill="none" stroke="black" d="M623.085,-666.398C619.526,-661.742 615.598,-656.604 611.774,-651.602"/>
<polygon fill="black" stroke="black" points="614.374,-649.241 605.52,-643.422 608.813,-653.492 614.374,-649.241"/>
</g>
<!-- JE2EBT -->
<g id="node11" class="node"><title>JE2EBT</title>
<ellipse fill="palegreen" stroke="black" cx="468.205" cy="-171.254" rx="43.1445" ry="18"/>
<text text-anchor="middle" x="468.205" y="-165.654" font-family="Times,serif" font-size="14.00">JE2EBT</text>
</g>
<!-- JF2DND -->
<g id="node12" class="node"><title>JF2DND</title>
<ellipse fill="palegreen" stroke="black" cx="99.8744" cy="-100.639" rx="45.3744" ry="18"/>
<text text-anchor="middle" x="99.8744" y="-95.0391" font-family="Times,serif" font-size="14.00">JF2DND</text>
</g>
<!-- JH1EDD -->
<g id="node13" class="node"><title>JH1EDD</title>
<ellipse fill="palegreen" stroke="black" cx="568.403" cy="-558" rx="46.1659" ry="18"/>
<text text-anchor="middle" x="568.403" y="-552.4" font-family="Times,serif" font-size="14.00">JH1EDD</text>
</g>
<!-- JH1EDD&#45;&gt;HK3UA -->
<g id="edge10" class="edge"><title>JH1EDD&#45;&gt;HK3UA</title>
<path fill="none" stroke="black" d="M574.697,-575.92C577.126,-582.836 579.961,-590.908 582.64,-598.534"/>
<polygon fill="black" stroke="black" points="579.408,-599.894 586.024,-608.169 586.012,-597.574 579.408,-599.894"/>
</g>
<!-- JI1RUX -->
<g id="node14" class="node"><title>JI1RUX</title>
<ellipse fill="palegreen" stroke="black" cx="364.211" cy="-108" rx="43.3424" ry="18"/>
<text text-anchor="middle" x="364.211" y="-102.4" font-family="Times,serif" font-size="14.00">JI1RUX</text>
</g>
<!-- JJ2QWN -->
<g id="node15" class="node"><title>JJ2QWN</title>
<ellipse fill="palegreen" stroke="black" cx="217.111" cy="-452.191" rx="46.1659" ry="18"/>
<text text-anchor="middle" x="217.111" y="-446.591" font-family="Times,serif" font-size="14.00">JJ2QWN</text>
</g>
<!-- JO1ALS -->
<g id="node16" class="node"><title>JO1ALS</title>
<ellipse fill="palegreen" stroke="black" cx="44.7993" cy="-550.639" rx="44.2628" ry="18"/>
<text text-anchor="middle" x="44.7993" y="-545.039" font-family="Times,serif" font-size="14.00">JO1ALS</text>
</g>
<!-- OK2FD -->
<g id="node17" class="node"><title>OK2FD</title>
<ellipse fill="palegreen" stroke="black" cx="553.238" cy="-484.192" rx="42.2366" ry="18"/>
<text text-anchor="middle" x="553.238" y="-478.592" font-family="Times,serif" font-size="14.00">OK2FD</text>
</g>
<!-- OO7B -->
<g id="node18" class="node"><title>OO7B</title>
<ellipse fill="palegreen" stroke="black" cx="506.153" cy="-360" rx="35.8835" ry="18"/>
<text text-anchor="middle" x="506.153" y="-354.4" font-family="Times,serif" font-size="14.00">OO7B</text>
</g>
<!-- PD0MNO -->
<g id="node19" class="node"><title>PD0MNO</title>
<ellipse fill="palegreen" stroke="black" cx="375.541" cy="-364.786" rx="50.6155" ry="18"/>
<text text-anchor="middle" x="375.541" y="-359.186" font-family="Times,serif" font-size="14.00">PD0MNO</text>
</g>
<!-- PD1DL -->
<g id="node20" class="node"><title>PD1DL</title>
<ellipse fill="palegreen" stroke="black" cx="41.0412" cy="-298.639" rx="41.1237" ry="18"/>
<text text-anchor="middle" x="41.0412" y="-293.039" font-family="Times,serif" font-size="14.00">PD1DL</text>
</g>
<!-- TA6P -->
<g id="node22" class="node"><title>TA6P</title>
<ellipse fill="palegreen" stroke="black" cx="339.299" cy="-28.6391" rx="33.0114" ry="18"/>
<text text-anchor="middle" x="339.299" y="-23.0391" font-family="Times,serif" font-size="14.00">TA6P</text>
</g>
<!-- YO5ER -->
<g id="node23" class="node"><title>YO5ER</title>
<ellipse fill="palegreen" stroke="black" cx="281.276" cy="-174.615" rx="42.2295" ry="18"/>
<text text-anchor="middle" x="281.276" y="-169.015" font-family="Times,serif" font-size="14.00">YO5ER</text>
</g>
<!-- K6ZGW -->
<g id="node30" class="node"><title>K6ZGW</title>
<ellipse fill="bisque" stroke="black" cx="674.785" cy="-424.639" rx="44.2418" ry="18"/>
<text text-anchor="middle" x="674.785" y="-419.039" font-family="Times,serif" font-size="14.00">K6ZGW</text>
</g>
<!-- Z4Y -->
<g id="node32" class="node"><title>Z4Y</title>
<ellipse fill="bisque" stroke="black" cx="745.995" cy="-414" rx="28.6056" ry="18"/>
<text text-anchor="middle" x="745.995" y="-408.4" font-family="Times,serif" font-size="14.00">Z4Y</text>
</g>
<!-- K6ZGW&#45;&gt;Z4Y -->
<g id="edge12" class="edge"><title>K6ZGW&#45;&gt;Z4Y</title>
<path fill="none" stroke="black" d="M717.031,-418.327C717.151,-418.309 717.271,-418.292 717.39,-418.274"/>
<polygon fill="black" stroke="black" points="708.376,-423.162 717.749,-418.22 707.34,-416.239 708.376,-423.162"/>
</g>
<!-- KB8BKW -->
<g id="node33" class="node"><title>KB8BKW</title>
<ellipse fill="bisque" stroke="black" cx="501.769" cy="-82.6391" rx="51.2168" ry="18"/>
<text text-anchor="middle" x="501.769" y="-77.0391" font-family="Times,serif" font-size="14.00">KB8BKW</text>
</g>
<!-- KM6CZX -->
<g id="node35" class="node"><title>KM6CZX</title>
<ellipse fill="bisque" stroke="black" cx="572.978" cy="-72" rx="50.6084" ry="18"/>
<text text-anchor="middle" x="572.978" y="-66.4" font-family="Times,serif" font-size="14.00">KM6CZX</text>
</g>
<!-- KB8BKW&#45;&gt;KM6CZX -->
<g id="edge14" class="edge"><title>KB8BKW&#45;&gt;KM6CZX</title>
<path fill="none" stroke="black" d="M549.661,-75.4836C549.712,-75.4761 549.762,-75.4686 549.812,-75.4611"/>
<polygon fill="black" stroke="black" points="540.592,-80.3835 549.963,-75.4386 539.553,-73.4602 540.592,-80.3835"/>
</g>
<!-- KB8MYC -->
<g id="node36" class="node"><title>KB8MYC</title>
<ellipse fill="bisque" stroke="black" cx="493.683" cy="-435.77" rx="50.924" ry="18"/>
<text text-anchor="middle" x="493.683" y="-430.17" font-family="Times,serif" font-size="14.00">KB8MYC</text>
</g>
<!-- KB8MYC&#45;&gt;DM1YS -->
<g id="edge16" class="edge"><title>KB8MYC&#45;&gt;DM1YS</title>
<path fill="none" stroke="black" d="M458.128,-448.981C457.968,-449.04 457.809,-449.099 457.65,-449.158"/>
<polygon fill="black" stroke="black" points="462.463,-443.636 454.308,-450.4 464.901,-450.198 462.463,-443.636"/>
</g>
<!-- KB8MYC&#45;&gt;OK2FD -->
<g id="edge18" class="edge"><title>KB8MYC&#45;&gt;OK2FD</title>
<path fill="none" stroke="black" d="M514.179,-452.434C517.758,-455.344 521.536,-458.416 525.275,-461.456"/>
<polygon fill="black" stroke="black" points="523.342,-464.395 533.309,-467.988 527.758,-458.964 523.342,-464.395"/>
</g>
<!-- KB8MYC&#45;&gt;OO7B -->
<g id="edge20" class="edge"><title>KB8MYC&#45;&gt;OO7B</title>
<path fill="none" stroke="black" d="M496.702,-417.428C498.142,-408.68 499.897,-398.017 501.502,-388.264"/>
<polygon fill="black" stroke="black" points="504.992,-388.609 503.163,-378.173 498.085,-387.472 504.992,-388.609"/>
</g>
<!-- KC9BZC -->
<g id="node40" class="node"><title>KC9BZC</title>
<ellipse fill="bisque" stroke="black" cx="138.02" cy="-461.519" rx="48.0917" ry="18"/>
<text text-anchor="middle" x="138.02" y="-455.919" font-family="Times,serif" font-size="14.00">KC9BZC</text>
</g>
<!-- KC9BZC&#45;&gt;JJ2QWN -->
<g id="edge22" class="edge"><title>KC9BZC&#45;&gt;JJ2QWN</title>
<path fill="none" stroke="black" d="M184.027,-456.093C184.095,-456.085 184.163,-456.077 184.231,-456.069"/>
<polygon fill="black" stroke="black" points="174.915,-460.697 184.435,-456.045 174.092,-453.745 174.915,-460.697"/>
</g>
<!-- KE0PRS -->
<g id="node42" class="node"><title>KE0PRS</title>
<ellipse fill="bisque" stroke="black" cx="135.084" cy="-630" rx="45.3814" ry="18"/>
<text text-anchor="middle" x="135.084" y="-624.4" font-family="Times,serif" font-size="14.00">KE0PRS</text>
</g>
<!-- KE0PRS&#45;&gt;JA3FQO -->
<g id="edge24" class="edge"><title>KE0PRS&#45;&gt;JA3FQO</title>
<path fill="none" stroke="black" d="M92.0183,-636.434C91.9597,-636.443 91.9012,-636.452 91.8427,-636.46"/>
<polygon fill="black" stroke="black" points="101.039,-631.543 91.6672,-636.487 102.076,-638.466 101.039,-631.543"/>
</g>
<!-- KK4UPB -->
<g id="node44" class="node"><title>KK4UPB</title>
<ellipse fill="bisque" stroke="black" cx="678.557" cy="-226.639" rx="48.3975" ry="18"/>
<text text-anchor="middle" x="678.557" y="-221.039" font-family="Times,serif" font-size="14.00">KK4UPB</text>
</g>
<!-- KA7X -->
<g id="node46" class="node"><title>KA7X</title>
<ellipse fill="bisque" stroke="black" cx="749.767" cy="-216" rx="36.1837" ry="18"/>
<text text-anchor="middle" x="749.767" y="-210.4" font-family="Times,serif" font-size="14.00">KA7X</text>
</g>
<!-- KK4UPB&#45;&gt;KA7X -->
<g id="edge26" class="edge"><title>KK4UPB&#45;&gt;KA7X</title>
<path fill="none" stroke="black" d="M723.656,-219.901C723.711,-219.893 723.766,-219.885 723.821,-219.876"/>
<polygon fill="black" stroke="black" points="714.615,-224.796 723.986,-219.852 713.577,-217.873 714.615,-224.796"/>
</g>
<!-- KK6CRP -->
<g id="node47" class="node"><title>KK6CRP</title>
<ellipse fill="bisque" stroke="black" cx="260.753" cy="-386.245" rx="48.0987" ry="18"/>
<text text-anchor="middle" x="260.753" y="-380.645" font-family="Times,serif" font-size="14.00">KK6CRP</text>
</g>
<!-- KK6CRP&#45;&gt;JJ2QWN -->
<g id="edge28" class="edge"><title>KK6CRP&#45;&gt;JJ2QWN</title>
<path fill="none" stroke="black" d="M249.058,-403.918C244.557,-410.718 239.318,-418.635 234.4,-426.066"/>
<polygon fill="black" stroke="black" points="231.439,-424.199 228.838,-434.47 237.276,-428.062 231.439,-424.199"/>
</g>
<!-- WP3R -->
<g id="node50" class="node"><title>WP3R</title>
<ellipse fill="bisque" stroke="black" cx="305.637" cy="-319.31" rx="36.1907" ry="18"/>
<text text-anchor="middle" x="305.637" y="-313.71" font-family="Times,serif" font-size="14.00">WP3R</text>
</g>
<!-- KK6CRP&#45;&gt;WP3R -->
<g id="edge30" class="edge"><title>KK6CRP&#45;&gt;WP3R</title>
<path fill="none" stroke="black" d="M272.546,-368.659C277.377,-361.454 283.065,-352.971 288.35,-345.09"/>
<polygon fill="black" stroke="black" points="291.416,-346.802 294.078,-336.547 285.602,-342.904 291.416,-346.802"/>
</g>
<!-- WP3R&#45;&gt;G3SZG -->
<g id="edge64" class="edge"><title>WP3R&#45;&gt;G3SZG</title>
<path fill="none" stroke="black" d="M283.148,-304.681C278.242,-301.489 272.959,-298.053 267.763,-294.673"/>
<polygon fill="black" stroke="black" points="269.476,-291.612 259.184,-289.093 265.659,-297.48 269.476,-291.612"/>
</g>
<!-- WP3R&#45;&gt;PD0MNO -->
<g id="edge66" class="edge"><title>WP3R&#45;&gt;PD0MNO</title>
<path fill="none" stroke="black" d="M327.755,-333.699C332.355,-336.691 337.299,-339.908 342.201,-343.097"/>
<polygon fill="black" stroke="black" points="340.604,-346.233 350.895,-348.753 344.422,-340.366 340.604,-346.233"/>
</g>
<!-- WB2UBW -->
<g id="node66" class="node"><title>WB2UBW</title>
<ellipse fill="bisque" stroke="black" cx="349.456" cy="-251.66" rx="53.4262" ry="18"/>
<text text-anchor="middle" x="349.456" y="-246.06" font-family="Times,serif" font-size="14.00">WB2UBW</text>
</g>
<!-- WP3R&#45;&gt;WB2UBW -->
<g id="edge68" class="edge"><title>WP3R&#45;&gt;WB2UBW</title>
<path fill="none" stroke="black" d="M316.922,-301.888C321.689,-294.528 327.342,-285.801 332.587,-277.703"/>
<polygon fill="black" stroke="black" points="335.559,-279.553 338.058,-269.257 329.684,-275.748 335.559,-279.553"/>
</g>
<!-- KZ5JEF -->
<g id="node51" class="node"><title>KZ5JEF</title>
<ellipse fill="bisque" stroke="black" cx="410.508" cy="-18" rx="43.1515" ry="18"/>
<text text-anchor="middle" x="410.508" y="-12.4" font-family="Times,serif" font-size="14.00">KZ5JEF</text>
</g>
<!-- KZ5JEF&#45;&gt;TA6P -->
<g id="edge32" class="edge"><title>KZ5JEF&#45;&gt;TA6P</title>
<path fill="none" stroke="black" d="M369.085,-24.1888C369.024,-24.198 368.963,-24.2071 368.902,-24.2162"/>
<polygon fill="black" stroke="black" points="378.09,-19.2998 368.718,-24.2436 379.128,-26.223 378.09,-19.2998"/>
</g>
<!-- N0VB -->
<g id="node53" class="node"><title>N0VB</title>
<ellipse fill="bisque" stroke="black" cx="210.14" cy="-162" rx="35.8835" ry="18"/>
<text text-anchor="middle" x="210.14" y="-156.4" font-family="Times,serif" font-size="14.00">N0VB</text>
</g>
<!-- N0VB&#45;&gt;EA4AAZ -->
<g id="edge34" class="edge"><title>N0VB&#45;&gt;EA4AAZ</title>
<path fill="none" stroke="black" d="M174.761,-166.8C174.691,-166.809 174.62,-166.819 174.55,-166.828"/>
<polygon fill="black" stroke="black" points="183.776,-162.04 174.338,-166.857 184.719,-168.977 183.776,-162.04"/>
</g>
<!-- N0VB&#45;&gt;YO5ER -->
<g id="edge36" class="edge"><title>N0VB&#45;&gt;YO5ER</title>
<path fill="none" stroke="black" d="M244.458,-168.086C244.529,-168.099 244.6,-168.111 244.671,-168.124"/>
<polygon fill="black" stroke="black" points="234.425,-169.858 244.884,-168.162 235.65,-162.965 234.425,-169.858"/>
</g>
<!-- N5JJH -->
<g id="node56" class="node"><title>N5JJH</title>
<ellipse fill="bisque" stroke="black" cx="149.321" cy="-378" rx="36.9951" ry="18"/>
<text text-anchor="middle" x="149.321" y="-372.4" font-family="Times,serif" font-size="14.00">N5JJH</text>
</g>
<!-- N5JJH&#45;&gt;DK3BT -->
<g id="edge38" class="edge"><title>N5JJH&#45;&gt;DK3BT</title>
<path fill="none" stroke="black" d="M113.299,-383.382C113.23,-383.392 113.161,-383.403 113.092,-383.413"/>
<polygon fill="black" stroke="black" points="122.257,-378.5 112.885,-383.444 123.294,-385.424 122.257,-378.5"/>
</g>
<!-- N5YFT -->
<g id="node58" class="node"><title>N5YFT</title>
<ellipse fill="bisque" stroke="black" cx="582.528" cy="-162" rx="41.1237" ry="18"/>
<text text-anchor="middle" x="582.528" y="-156.4" font-family="Times,serif" font-size="14.00">N5YFT</text>
</g>
<!-- N5YFT&#45;&gt;PW8NM -->
<g id="edge40" class="edge"><title>N5YFT&#45;&gt;PW8NM</title>
<path fill="none" stroke="black" d="M576.194,-179.907C573.75,-186.817 570.898,-194.883 568.203,-202.503"/>
<polygon fill="black" stroke="black" points="564.832,-201.536 564.798,-212.131 571.432,-203.87 564.832,-201.536"/>
</g>
<!-- NI6BB -->
<g id="node60" class="node"><title>NI6BB</title>
<ellipse fill="bisque" stroke="black" cx="171.084" cy="-90" rx="38.4063" ry="18"/>
<text text-anchor="middle" x="171.084" y="-84.4" font-family="Times,serif" font-size="14.00">NI6BB</text>
</g>
<!-- NI6BB&#45;&gt;JF2DND -->
<g id="edge42" class="edge"><title>NI6BB&#45;&gt;JF2DND</title>
<path fill="none" stroke="black" d="M133.811,-95.5688C133.743,-95.5789 133.676,-95.5889 133.609,-95.599"/>
<polygon fill="black" stroke="black" points="142.779,-90.6857 133.407,-95.6291 143.816,-97.6089 142.779,-90.6857"/>
</g>
<!-- W0PE -->
<g id="node62" class="node"><title>W0PE</title>
<ellipse fill="bisque" stroke="black" cx="389.595" cy="-183.514" rx="36.3747" ry="18"/>
<text text-anchor="middle" x="389.595" y="-177.914" font-family="Times,serif" font-size="14.00">W0PE</text>
</g>
<!-- W0PE&#45;&gt;JE2EBT -->
<g id="edge44" class="edge"><title>W0PE&#45;&gt;JE2EBT</title>
<path fill="none" stroke="black" d="M424.303,-178.101C424.427,-178.082 424.55,-178.063 424.674,-178.044"/>
<polygon fill="black" stroke="black" points="417.933,-182.638 427.274,-177.638 416.854,-175.721 417.933,-182.638"/>
</g>
<!-- W0PE&#45;&gt;JI1RUX -->
<g id="edge46" class="edge"><title>W0PE&#45;&gt;JI1RUX</title>
<path fill="none" stroke="black" d="M383.579,-165.619C380.566,-156.656 376.852,-145.606 373.484,-135.588"/>
<polygon fill="black" stroke="black" points="376.775,-134.393 370.271,-126.029 370.14,-136.623 376.775,-134.393"/>
</g>
<!-- W0PE&#45;&gt;WB2UBW -->
<g id="edge48" class="edge"><title>W0PE&#45;&gt;WB2UBW</title>
<path fill="none" stroke="black" d="M372.897,-199.736C367.74,-207.173 362.323,-216.163 357.904,-224.57"/>
<polygon fill="black" stroke="black" points="354.685,-223.183 353.405,-233.7 360.965,-226.277 354.685,-223.183"/>
</g>
<!-- WB2UBW&#45;&gt;W0PE -->
<g id="edge62" class="edge"><title>WB2UBW&#45;&gt;W0PE</title>
<path fill="none" stroke="black" d="M366.881,-234.383C371.837,-227.131 376.977,-218.547 381.2,-210.505"/>
<polygon fill="black" stroke="black" points="384.392,-211.944 385.668,-201.426 378.112,-208.853 384.392,-211.944"/>
</g>
<!-- W5ACB -->
<g id="node67" class="node"><title>W5ACB</title>
<ellipse fill="bisque" stroke="black" cx="112.251" cy="-288" rx="44.2558" ry="18"/>
<text text-anchor="middle" x="112.251" y="-282.4" font-family="Times,serif" font-size="14.00">W5ACB</text>
</g>
<!-- W5ACB&#45;&gt;PD1DL -->
<g id="edge50" class="edge"><title>W5ACB&#45;&gt;PD1DL</title>
<path fill="none" stroke="black" d="M70.0049,-294.312C69.945,-294.321 69.8851,-294.33 69.8253,-294.339"/>
<polygon fill="black" stroke="black" points="79.0173,-289.421 69.6458,-294.365 80.0549,-296.345 79.0173,-289.421"/>
</g>
<!-- W5IUA -->
<g id="node69" class="node"><title>W5IUA</title>
<ellipse fill="bisque" stroke="black" cx="239.727" cy="-528.495" rx="42.2153" ry="18"/>
<text text-anchor="middle" x="239.727" y="-522.895" font-family="Times,serif" font-size="14.00">W5IUA</text>
</g>
<!-- W5IUA&#45;&gt;JJ2QWN -->
<g id="edge52" class="edge"><title>W5IUA&#45;&gt;JJ2QWN</title>
<path fill="none" stroke="black" d="M234.367,-510.412C231.664,-501.289 228.325,-490.027 225.308,-479.846"/>
<polygon fill="black" stroke="black" points="228.63,-478.737 222.432,-470.144 221.918,-480.727 228.63,-478.737"/>
</g>
<!-- W7HBL -->
<g id="node71" class="node"><title>W7HBL</title>
<ellipse fill="bisque" stroke="black" cx="434.118" cy="-608.206" rx="43.942" ry="18"/>
<text text-anchor="middle" x="434.118" y="-602.606" font-family="Times,serif" font-size="14.00">W7HBL</text>
</g>
<!-- WA0CSL -->
<g id="node73" class="node"><title>WA0CSL</title>
<ellipse fill="bisque" stroke="black" cx="478.013" cy="-665.625" rx="48.3905" ry="18"/>
<text text-anchor="middle" x="478.013" y="-660.025" font-family="Times,serif" font-size="14.00">WA0CSL</text>
</g>
<!-- W7HBL&#45;&gt;WA0CSL -->
<g id="edge54" class="edge"><title>W7HBL&#45;&gt;WA0CSL</title>
<path fill="none" stroke="black" d="M447.288,-625.434C450.782,-630.005 454.632,-635.041 458.39,-639.957"/>
<polygon fill="black" stroke="black" points="455.694,-642.194 464.548,-648.013 461.256,-637.942 455.694,-642.194"/>
</g>
<!-- WA1QFV -->
<g id="node75" class="node"><title>WA1QFV</title>
<ellipse fill="bisque" stroke="black" cx="410.161" cy="-540" rx="50.3032" ry="18"/>
<text text-anchor="middle" x="410.161" y="-534.4" font-family="Times,serif" font-size="14.00">WA1QFV</text>
</g>
<!-- W7HBL&#45;&gt;WA1QFV -->
<g id="edge56" class="edge"><title>W7HBL&#45;&gt;WA1QFV</title>
<path fill="none" stroke="black" d="M427.823,-590.286C425.394,-583.37 422.559,-575.298 419.88,-567.672"/>
<polygon fill="black" stroke="black" points="423.112,-566.313 416.496,-558.038 416.508,-568.632 423.112,-566.313"/>
</g>
<!-- W9FFA -->
<g id="node76" class="node"><title>W9FFA</title>
<ellipse fill="bisque" stroke="black" cx="116.009" cy="-540" rx="41.4748" ry="18"/>
<text text-anchor="middle" x="116.009" y="-534.4" font-family="Times,serif" font-size="14.00">W9FFA</text>
</g>
<!-- W9FFA&#45;&gt;JO1ALS -->
<g id="edge58" class="edge"><title>W9FFA&#45;&gt;JO1ALS</title>
<path fill="none" stroke="black" d="M76.2402,-545.942C76.1765,-545.951 76.1128,-545.961 76.0491,-545.97"/>
<polygon fill="black" stroke="black" points="85.2297,-541.055 75.8581,-545.999 86.2671,-547.978 85.2297,-541.055"/>
</g>
<!-- WA3OGQ -->
<g id="node78" class="node"><title>WA3OGQ</title>
<ellipse fill="bisque" stroke="black" cx="627.764" cy="-352.639" rx="51.2098" ry="18"/>
<text text-anchor="middle" x="627.764" y="-347.039" font-family="Times,serif" font-size="14.00">WA3OGQ</text>
</g>
<!-- KD6XP -->
<g id="node80" class="node"><title>KD6XP</title>
<ellipse fill="bisque" stroke="black" cx="698.973" cy="-342" rx="42.2366" ry="18"/>
<text text-anchor="middle" x="698.973" y="-336.4" font-family="Times,serif" font-size="14.00">KD6XP</text>
</g>
<!-- WA3OGQ&#45;&gt;KD6XP -->
<g id="edge60" class="edge"><title>WA3OGQ&#45;&gt;KD6XP</title>
<path fill="none" stroke="black" d="M675.657,-345.484C675.707,-345.476 675.757,-345.469 675.808,-345.461"/>
<polygon fill="black" stroke="black" points="666.587,-350.383 675.958,-345.439 665.549,-343.46 666.587,-350.383"/>
</g>
</g>
</svg>
