<?xml version="1.0" encoding="UTF-8" standalone="no"?>
<!DOCTYPE svg PUBLIC "-//W3C//DTD SVG 1.1//EN"
 "http://www.w3.org/Graphics/SVG/1.1/DTD/svg11.dtd">
<!-- Generated by graphviz version 2.28.0 (20110509.1545)
 -->
<!-- Title: _anonymous_0 Pages: 1 -->
<svg width="883pt" height="860pt"
 viewBox="0.00 0.00 882.59 859.63" xmlns="http://www.w3.org/2000/svg" xmlns:xlink="http://www.w3.org/1999/xlink">
<g id="graph1" class="graph" transform="scale(1 1) rotate(0) translate(4 855.625)">
<title>_anonymous_0</title>
<polygon fill="white" stroke="white" points="-4,5 -4,-855.625 879.594,-855.625 879.594,5 -4,5"/>
<!-- BA7IO -->
<g id="node1" class="node"><title>BA7IO</title>
<ellipse fill="palegreen" stroke="black" cx="295.604" cy="-366.988" rx="39.2049" ry="18"/>
<text text-anchor="middle" x="295.604" y="-361.388" font-family="Times,serif" font-size="14.00">BA7IO</text>
</g>
<!-- BD7JMR -->
<g id="node2" class="node"><title>BD7JMR</title>
<ellipse fill="palegreen" stroke="black" cx="626.571" cy="-331.901" rx="48.0987" ry="18"/>
<text text-anchor="middle" x="626.571" y="-326.301" font-family="Times,serif" font-size="14.00">BD7JMR</text>
</g>
<!-- BG5ILX -->
<g id="node3" class="node"><title>BG5ILX</title>
<ellipse fill="palegreen" stroke="black" cx="585.033" cy="-237.713" rx="45.0539" ry="18"/>
<text text-anchor="middle" x="585.033" y="-232.113" font-family="Times,serif" font-size="14.00">BG5ILX</text>
</g>
<!-- BG9DYJ -->
<g id="node4" class="node"><title>BG9DYJ</title>
<ellipse fill="palegreen" stroke="black" cx="470.862" cy="-486.367" rx="46.4791" ry="18"/>
<text text-anchor="middle" x="470.862" y="-480.767" font-family="Times,serif" font-size="14.00">BG9DYJ</text>
</g>
<!-- BH3SCC -->
<g id="node5" class="node"><title>BH3SCC</title>
<ellipse fill="palegreen" stroke="black" cx="414.546" cy="-619.847" rx="47.2993" ry="18"/>
<text text-anchor="middle" x="414.546" y="-614.247" font-family="Times,serif" font-size="14.00">BH3SCC</text>
</g>
<!-- BH7ACO -->
<g id="node6" class="node"><title>BH7ACO</title>
<ellipse fill="palegreen" stroke="black" cx="426.828" cy="-338.405" rx="49.5029" ry="18"/>
<text text-anchor="middle" x="426.828" y="-332.805" font-family="Times,serif" font-size="14.00">BH7ACO</text>
</g>
<!-- F5JQQ -->
<g id="node7" class="node"><title>F5JQQ</title>
<ellipse fill="palegreen" stroke="black" cx="545.58" cy="-617.406" rx="38.4133" ry="18"/>
<text text-anchor="middle" x="545.58" y="-611.806" font-family="Times,serif" font-size="14.00">F5JQQ</text>
</g>
<!-- G4UGB -->
<g id="node8" class="node"><title>G4UGB</title>
<ellipse fill="palegreen" stroke="black" cx="727.766" cy="-240.615" rx="43.3424" ry="18"/>
<text text-anchor="middle" x="727.766" y="-235.015" font-family="Times,serif" font-size="14.00">G4UGB</text>
</g>
<!-- HB9EBV -->
<g id="node9" class="node"><title>HB9EBV</title>
<ellipse fill="palegreen" stroke="black" cx="438.259" cy="-148.639" rx="48.3905" ry="18"/>
<text text-anchor="middle" x="438.259" y="-143.039" font-family="Times,serif" font-size="14.00">HB9EBV</text>
</g>
<!-- JA0HZR -->
<g id="node10" class="node"><title>JA0HZR</title>
<ellipse fill="palegreen" stroke="black" cx="562.777" cy="-297.557" rx="45.3674" ry="18"/>
<text text-anchor="middle" x="562.777" y="-291.957" font-family="Times,serif" font-size="14.00">JA0HZR</text>
</g>
<!-- JA0QAO -->
<g id="node11" class="node"><title>JA0QAO</title>
<ellipse fill="palegreen" stroke="black" cx="546.415" cy="-500.925" rx="47.2781" ry="18"/>
<text text-anchor="middle" x="546.415" y="-495.325" font-family="Times,serif" font-size="14.00">JA0QAO</text>
</g>
<!-- JA1AFR -->
<g id="node12" class="node"><title>JA1AFR</title>
<ellipse fill="palegreen" stroke="black" cx="105.047" cy="-748.639" rx="45.075" ry="18"/>
<text text-anchor="middle" x="105.047" y="-743.039" font-family="Times,serif" font-size="14.00">JA1AFR</text>
</g>
<!-- VU2EOJ -->
<g id="node48" class="node"><title>VU2EOJ</title>
<ellipse fill="palegreen" stroke="black" cx="176.257" cy="-738" rx="46.1659" ry="18"/>
<text text-anchor="middle" x="176.257" y="-732.4" font-family="Times,serif" font-size="14.00">VU2EOJ</text>
</g>
<!-- JA1AFR&#45;&gt;VU2EOJ -->
<g id="edge2" class="edge"><title>JA1AFR&#45;&gt;VU2EOJ</title>
<path fill="none" stroke="black" d="M147.704,-742.266C147.763,-742.257 147.822,-742.248 147.881,-742.239"/>
<polygon fill="black" stroke="black" points="138.687,-747.157 148.059,-742.213 137.65,-740.234 138.687,-747.157"/>
</g>
<!-- JA1CHY -->
<g id="node13" class="node"><title>JA1CHY</title>
<ellipse fill="palegreen" stroke="black" cx="365.74" cy="-324.67" rx="46.4791" ry="18"/>
<text text-anchor="middle" x="365.74" y="-319.07" font-family="Times,serif" font-size="14.00">JA1CHY</text>
</g>
<!-- JA1FJJ -->
<g id="node14" class="node"><title>JA1FJJ</title>
<ellipse fill="palegreen" stroke="black" cx="87.6696" cy="-104.639" rx="39.226" ry="18"/>
<text text-anchor="middle" x="87.6696" y="-99.0385" font-family="Times,serif" font-size="14.00">JA1FJJ</text>
</g>
<!-- JA1XPQ -->
<g id="node15" class="node"><title>JA1XPQ</title>
<ellipse fill="palegreen" stroke="black" cx="261.158" cy="-247.242" rx="45.3744" ry="18"/>
<text text-anchor="middle" x="261.158" y="-241.642" font-family="Times,serif" font-size="14.00">JA1XPQ</text>
</g>
<!-- VO1CH -->
<g id="node47" class="node"><title>VO1CH</title>
<ellipse fill="palegreen" stroke="black" cx="212.417" cy="-182.092" rx="43.3424" ry="18"/>
<text text-anchor="middle" x="212.417" y="-176.492" font-family="Times,serif" font-size="14.00">VO1CH</text>
</g>
<!-- JA1XPQ&#45;&gt;VO1CH -->
<g id="edge4" class="edge"><title>JA1XPQ&#45;&gt;VO1CH</title>
<path fill="none" stroke="black" d="M248.096,-229.783C243.07,-223.064 237.219,-215.244 231.726,-207.902"/>
<polygon fill="black" stroke="black" points="234.307,-205.51 225.514,-199.599 228.702,-209.703 234.307,-205.51"/>
</g>
<!-- W8VS -->
<g id="node59" class="node"><title>W8VS</title>
<ellipse fill="bisque" stroke="black" cx="316.292" cy="-308.162" rx="36.9881" ry="18"/>
<text text-anchor="middle" x="316.292" y="-302.562" font-family="Times,serif" font-size="14.00">W8VS</text>
</g>
<!-- JA1XPQ&#45;&gt;W8VS -->
<g id="edge6" class="edge"><title>JA1XPQ&#45;&gt;W8VS</title>
<path fill="none" stroke="black" d="M276.516,-264.211C282.012,-270.285 288.32,-277.254 294.269,-283.827"/>
<polygon fill="black" stroke="black" points="291.711,-286.217 301.017,-291.283 296.901,-281.52 291.711,-286.217"/>
</g>
<!-- JA3KVT -->
<g id="node16" class="node"><title>JA3KVT</title>
<ellipse fill="palegreen" stroke="black" cx="600.394" cy="-677.132" rx="46.1659" ry="18"/>
<text text-anchor="middle" x="600.394" y="-671.532" font-family="Times,serif" font-size="14.00">JA3KVT</text>
</g>
<!-- JA3KVT&#45;&gt;F5JQQ -->
<g id="edge8" class="edge"><title>JA3KVT&#45;&gt;F5JQQ</title>
<path fill="none" stroke="black" d="M584.539,-659.857C579.292,-654.14 573.354,-647.67 567.724,-641.535"/>
<polygon fill="black" stroke="black" points="570.173,-639.027 560.833,-634.026 565.016,-643.76 570.173,-639.027"/>
</g>
<!-- PY3IT -->
<g id="node37" class="node"><title>PY3IT</title>
<ellipse fill="palegreen" stroke="black" cx="659.46" cy="-723.13" rx="36.9881" ry="18"/>
<text text-anchor="middle" x="659.46" y="-717.53" font-family="Times,serif" font-size="14.00">PY3IT</text>
</g>
<!-- JA3KVT&#45;&gt;PY3IT -->
<g id="edge10" class="edge"><title>JA3KVT&#45;&gt;PY3IT</title>
<path fill="none" stroke="black" d="M621.384,-693.478C624.742,-696.093 628.26,-698.833 631.745,-701.547"/>
<polygon fill="black" stroke="black" points="629.682,-704.376 639.722,-707.759 633.983,-698.853 629.682,-704.376"/>
</g>
<!-- JA4FAK -->
<g id="node17" class="node"><title>JA4FAK</title>
<ellipse fill="palegreen" stroke="black" cx="644.441" cy="-364.957" rx="45.3059" ry="18"/>
<text text-anchor="middle" x="644.441" y="-359.357" font-family="Times,serif" font-size="14.00">JA4FAK</text>
</g>
<!-- JA5UIM -->
<g id="node18" class="node"><title>JA5UIM</title>
<ellipse fill="palegreen" stroke="black" cx="562.585" cy="-547.82" rx="45.0609" ry="18"/>
<text text-anchor="middle" x="562.585" y="-542.22" font-family="Times,serif" font-size="14.00">JA5UIM</text>
</g>
<!-- JA7FVA -->
<g id="node19" class="node"><title>JA7FVA</title>
<ellipse fill="palegreen" stroke="black" cx="44.3354" cy="-185.106" rx="44.5055" ry="18"/>
<text text-anchor="middle" x="44.3354" y="-179.506" font-family="Times,serif" font-size="14.00">JA7FVA</text>
</g>
<!-- JE3EZK -->
<g id="node20" class="node"><title>JE3EZK</title>
<ellipse fill="palegreen" stroke="black" cx="467.608" cy="-430.572" rx="43.942" ry="18"/>
<text text-anchor="middle" x="467.608" y="-424.972" font-family="Times,serif" font-size="14.00">JE3EZK</text>
</g>
<!-- JH1ACA -->
<g id="node21" class="node"><title>JH1ACA</title>
<ellipse fill="palegreen" stroke="black" cx="393.716" cy="-309.314" rx="46.4791" ry="18"/>
<text text-anchor="middle" x="393.716" y="-303.714" font-family="Times,serif" font-size="14.00">JH1ACA</text>
</g>
<!-- JH1EDD -->
<g id="node22" class="node"><title>JH1EDD</title>
<ellipse fill="palegreen" stroke="black" cx="509.468" cy="-138" rx="46.1659" ry="18"/>
<text text-anchor="middle" x="509.468" y="-132.4" font-family="Times,serif" font-size="14.00">JH1EDD</text>
</g>
<!-- JH1EDD&#45;&gt;HB9EBV -->
<g id="edge12" class="edge"><title>JH1EDD&#45;&gt;HB9EBV</title>
<path fill="none" stroke="black" d="M465.994,-144.495C465.936,-144.504 465.878,-144.513 465.82,-144.521"/>
<polygon fill="black" stroke="black" points="475.018,-139.603 465.647,-144.547 476.056,-146.526 475.018,-139.603"/>
</g>
<!-- JH1IED -->
<g id="node23" class="node"><title>JH1IED</title>
<ellipse fill="palegreen" stroke="black" cx="656.63" cy="-228" rx="42.5278" ry="18"/>
<text text-anchor="middle" x="656.63" y="-222.4" font-family="Times,serif" font-size="14.00">JH1IED</text>
</g>
<!-- JH1IED&#45;&gt;BG5ILX -->
<g id="edge14" class="edge"><title>JH1IED&#45;&gt;BG5ILX</title>
<path fill="none" stroke="black" d="M615.812,-233.538C615.749,-233.546 615.687,-233.555 615.624,-233.563"/>
<polygon fill="black" stroke="black" points="624.873,-228.772 615.436,-233.589 625.817,-235.708 624.873,-228.772"/>
</g>
<!-- JH1IED&#45;&gt;G4UGB -->
<g id="edge16" class="edge"><title>JH1IED&#45;&gt;G4UGB</title>
<path fill="none" stroke="black" d="M695.943,-234.972C696.008,-234.983 696.072,-234.995 696.136,-235.006"/>
<polygon fill="black" stroke="black" points="685.87,-236.736 696.329,-235.04 687.095,-229.844 685.87,-236.736"/>
</g>
<!-- JH1LZU -->
<g id="node24" class="node"><title>JH1LZU</title>
<ellipse fill="palegreen" stroke="black" cx="126.62" cy="-173.512" rx="45.0539" ry="18"/>
<text text-anchor="middle" x="126.62" y="-167.912" font-family="Times,serif" font-size="14.00">JH1LZU</text>
</g>
<!-- JH1LZU&#45;&gt;JA1FJJ -->
<g id="edge18" class="edge"><title>JH1LZU&#45;&gt;JA1FJJ</title>
<path fill="none" stroke="black" d="M116.59,-155.775C112.331,-148.246 107.279,-139.312 102.597,-131.034"/>
<polygon fill="black" stroke="black" points="105.501,-129.058 97.5316,-122.077 99.4077,-132.504 105.501,-129.058"/>
</g>
<!-- JH1LZU&#45;&gt;JA7FVA -->
<g id="edge20" class="edge"><title>JH1LZU&#45;&gt;JA7FVA</title>
<path fill="none" stroke="black" d="M83.5499,-179.581C83.4721,-179.591 83.3944,-179.602 83.3166,-179.613"/>
<polygon fill="black" stroke="black" points="92.496,-174.782 83.0834,-179.646 93.4752,-181.713 92.496,-174.782"/>
</g>
<!-- JH1LZU&#45;&gt;VO1CH -->
<g id="edge22" class="edge"><title>JH1LZU&#45;&gt;VO1CH</title>
<path fill="none" stroke="black" d="M170.524,-177.903C170.606,-177.911 170.689,-177.919 170.771,-177.927"/>
<polygon fill="black" stroke="black" points="160.719,-180.436 171.019,-177.952 161.418,-173.471 160.719,-180.436"/>
</g>
<!-- JH3CUL -->
<g id="node25" class="node"><title>JH3CUL</title>
<ellipse fill="palegreen" stroke="black" cx="303.591" cy="-419.723" rx="45.3674" ry="18"/>
<text text-anchor="middle" x="303.591" y="-414.123" font-family="Times,serif" font-size="14.00">JH3CUL</text>
</g>
<!-- JH4GXE -->
<g id="node26" class="node"><title>JH4GXE</title>
<ellipse fill="palegreen" stroke="black" cx="423.076" cy="-567.458" rx="46.1659" ry="18"/>
<text text-anchor="middle" x="423.076" y="-561.858" font-family="Times,serif" font-size="14.00">JH4GXE</text>
</g>
<!-- JH5EZJ -->
<g id="node27" class="node"><title>JH5EZJ</title>
<ellipse fill="palegreen" stroke="black" cx="333.231" cy="-356.59" rx="42.2295" ry="18"/>
<text text-anchor="middle" x="333.231" y="-350.99" font-family="Times,serif" font-size="14.00">JH5EZJ</text>
</g>
<!-- JH7OHS -->
<g id="node28" class="node"><title>JH7OHS</title>
<ellipse fill="palegreen" stroke="black" cx="540.287" cy="-460.21" rx="45.3744" ry="18"/>
<text text-anchor="middle" x="540.287" y="-454.61" font-family="Times,serif" font-size="14.00">JH7OHS</text>
</g>
<!-- JI1GVS -->
<g id="node29" class="node"><title>JI1GVS</title>
<ellipse fill="palegreen" stroke="black" cx="651.963" cy="-399.586" rx="42.2366" ry="18"/>
<text text-anchor="middle" x="651.963" y="-393.986" font-family="Times,serif" font-size="14.00">JI1GVS</text>
</g>
<!-- JI2TKX -->
<g id="node30" class="node"><title>JI2TKX</title>
<ellipse fill="palegreen" stroke="black" cx="162.35" cy="-438" rx="42.8721" ry="18"/>
<text text-anchor="middle" x="162.35" y="-432.4" font-family="Times,serif" font-size="14.00">JI2TKX</text>
</g>
<!-- JJ1CBY -->
<g id="node31" class="node"><title>JJ1CBY</title>
<ellipse fill="palegreen" stroke="black" cx="260.809" cy="-630.557" rx="43.3566" ry="18"/>
<text text-anchor="middle" x="260.809" y="-624.957" font-family="Times,serif" font-size="14.00">JJ1CBY</text>
</g>
<!-- JQ2MPJ -->
<g id="node32" class="node"><title>JQ2MPJ</title>
<ellipse fill="palegreen" stroke="black" cx="444.704" cy="-606.166" rx="43.9701" ry="18"/>
<text text-anchor="middle" x="444.704" y="-600.566" font-family="Times,serif" font-size="14.00">JQ2MPJ</text>
</g>
<!-- JR2LJO -->
<g id="node33" class="node"><title>JR2LJO</title>
<ellipse fill="palegreen" stroke="black" cx="235.336" cy="-97.929" rx="42.5419" ry="18"/>
<text text-anchor="middle" x="235.336" y="-92.329" font-family="Times,serif" font-size="14.00">JR2LJO</text>
</g>
<!-- JR2LJO&#45;&gt;VO1CH -->
<g id="edge24" class="edge"><title>JR2LJO&#45;&gt;VO1CH</title>
<path fill="none" stroke="black" d="M230.363,-116.191C227.339,-127.296 223.416,-141.699 220.01,-154.208"/>
<polygon fill="black" stroke="black" points="216.552,-153.587 217.301,-164.155 223.306,-155.426 216.552,-153.587"/>
</g>
<!-- W1AVK -->
<g id="node70" class="node"><title>W1AVK</title>
<ellipse fill="bisque" stroke="black" cx="242.559" cy="-18" rx="44.4843" ry="18"/>
<text text-anchor="middle" x="242.559" y="-12.4" font-family="Times,serif" font-size="14.00">W1AVK</text>
</g>
<!-- JR2LJO&#45;&gt;W1AVK -->
<g id="edge26" class="edge"><title>JR2LJO&#45;&gt;W1AVK</title>
<path fill="none" stroke="black" d="M236.975,-79.7919C237.871,-69.879 239,-57.3817 240.008,-46.2242"/>
<polygon fill="black" stroke="black" points="243.512,-46.3398 240.926,-36.0654 236.54,-45.7097 243.512,-46.3398"/>
</g>
<!-- JR3IIR -->
<g id="node34" class="node"><title>JR3IIR</title>
<ellipse fill="palegreen" stroke="black" cx="721.18" cy="-763.347" rx="38.4063" ry="18"/>
<text text-anchor="middle" x="721.18" y="-757.747" font-family="Times,serif" font-size="14.00">JR3IIR</text>
</g>
<!-- JR3IIR&#45;&gt;PY3IT -->
<g id="edge28" class="edge"><title>JR3IIR&#45;&gt;PY3IT</title>
<path fill="none" stroke="black" d="M698.548,-748.6C695.796,-746.806 692.949,-744.952 690.105,-743.098"/>
<polygon fill="black" stroke="black" points="691.966,-740.133 681.677,-737.606 688.144,-745.998 691.966,-740.133"/>
</g>
<!-- JR6JGB -->
<g id="node35" class="node"><title>JR6JGB</title>
<ellipse fill="palegreen" stroke="black" cx="210.58" cy="-518.972" rx="43.3566" ry="18"/>
<text text-anchor="middle" x="210.58" y="-513.372" font-family="Times,serif" font-size="14.00">JR6JGB</text>
</g>
<!-- OE6ATD -->
<g id="node36" class="node"><title>OE6ATD</title>
<ellipse fill="palegreen" stroke="black" cx="438.668" cy="-501.361" rx="47.2711" ry="18"/>
<text text-anchor="middle" x="438.668" y="-495.761" font-family="Times,serif" font-size="14.00">OE6ATD</text>
</g>
<!-- R0WBG -->
<g id="node38" class="node"><title>R0WBG</title>
<ellipse fill="palegreen" stroke="black" cx="428.142" cy="-297.239" rx="44.2558" ry="18"/>
<text text-anchor="middle" x="428.142" y="-291.639" font-family="Times,serif" font-size="14.00">R0WBG</text>
</g>
<!-- R3FO -->
<g id="node39" class="node"><title>R3FO</title>
<ellipse fill="palegreen" stroke="black" cx="525.257" cy="-529.425" rx="34.4754" ry="18"/>
<text text-anchor="middle" x="525.257" y="-523.825" font-family="Times,serif" font-size="14.00">R3FO</text>
</g>
<!-- R9LM -->
<g id="node40" class="node"><title>R9LM</title>
<ellipse fill="palegreen" stroke="black" cx="380.855" cy="-483.716" rx="36.1907" ry="18"/>
<text text-anchor="middle" x="380.855" y="-478.116" font-family="Times,serif" font-size="14.00">R9LM</text>
</g>
<!-- RW6AB -->
<g id="node41" class="node"><title>RW6AB</title>
<ellipse fill="palegreen" stroke="black" cx="400.86" cy="-593.256" rx="43.963" ry="18"/>
<text text-anchor="middle" x="400.86" y="-587.656" font-family="Times,serif" font-size="14.00">RW6AB</text>
</g>
<!-- RX9U -->
<g id="node42" class="node"><title>RX9U</title>
<ellipse fill="palegreen" stroke="black" cx="528.799" cy="-583.523" rx="35.8835" ry="18"/>
<text text-anchor="middle" x="528.799" y="-577.923" font-family="Times,serif" font-size="14.00">RX9U</text>
</g>
<!-- SP9KR -->
<g id="node43" class="node"><title>SP9KR</title>
<ellipse fill="palegreen" stroke="black" cx="231.813" cy="-601.867" rx="40.0322" ry="18"/>
<text text-anchor="middle" x="231.813" y="-596.267" font-family="Times,serif" font-size="14.00">SP9KR</text>
</g>
<!-- US1IL -->
<g id="node44" class="node"><title>US1IL</title>
<ellipse fill="palegreen" stroke="black" cx="487.879" cy="-590.382" rx="36.9881" ry="18"/>
<text text-anchor="middle" x="487.879" y="-584.782" font-family="Times,serif" font-size="14.00">US1IL</text>
</g>
<!-- UT3UCR -->
<g id="node45" class="node"><title>UT3UCR</title>
<ellipse fill="palegreen" stroke="black" cx="212.558" cy="-562.354" rx="48.3905" ry="18"/>
<text text-anchor="middle" x="212.558" y="-556.754" font-family="Times,serif" font-size="14.00">UT3UCR</text>
</g>
<!-- VE3XN -->
<g id="node46" class="node"><title>VE3XN</title>
<ellipse fill="palegreen" stroke="black" cx="299.392" cy="-395.476" rx="42.5278" ry="18"/>
<text text-anchor="middle" x="299.392" y="-389.876" font-family="Times,serif" font-size="14.00">VE3XN</text>
</g>
<!-- YB1AM -->
<g id="node49" class="node"><title>YB1AM</title>
<ellipse fill="palegreen" stroke="black" cx="290.964" cy="-540.354" rx="44.2628" ry="18"/>
<text text-anchor="middle" x="290.964" y="-534.754" font-family="Times,serif" font-size="14.00">YB1AM</text>
</g>
<!-- YB1AM&#45;&gt;JJ1CBY -->
<g id="edge58" class="edge"><title>YB1AM&#45;&gt;JJ1CBY</title>
<path fill="none" stroke="black" d="M284.862,-558.608C280.624,-571.284 274.899,-588.409 270.098,-602.771"/>
<polygon fill="black" stroke="black" points="266.65,-602.044 266.799,-612.638 273.289,-604.264 266.65,-602.044"/>
</g>
<!-- YB1AM&#45;&gt;JR6JGB -->
<g id="edge60" class="edge"><title>YB1AM&#45;&gt;JR6JGB</title>
<path fill="none" stroke="black" d="M253.596,-530.414C253.463,-530.379 253.33,-530.343 253.196,-530.308"/>
<polygon fill="black" stroke="black" points="257.756,-527.899 247.192,-528.711 255.957,-534.664 257.756,-527.899"/>
</g>
<!-- YB1AM&#45;&gt;R9LM -->
<g id="edge62" class="edge"><title>YB1AM&#45;&gt;R9LM</title>
<path fill="none" stroke="black" d="M315.053,-525.176C325.64,-518.505 338.211,-510.585 349.515,-503.462"/>
<polygon fill="black" stroke="black" points="351.651,-506.253 358.246,-497.961 347.919,-500.331 351.651,-506.253"/>
</g>
<!-- YB1AM&#45;&gt;SP9KR -->
<g id="edge64" class="edge"><title>YB1AM&#45;&gt;SP9KR</title>
<path fill="none" stroke="black" d="M274.801,-557.163C268.671,-563.537 261.567,-570.925 254.921,-577.836"/>
<polygon fill="black" stroke="black" points="252.365,-575.445 247.956,-585.079 257.411,-580.297 252.365,-575.445"/>
</g>
<!-- YB1AM&#45;&gt;UT3UCR -->
<g id="edge66" class="edge"><title>YB1AM&#45;&gt;UT3UCR</title>
<path fill="none" stroke="black" d="M254.057,-550.71C253.958,-550.738 253.858,-550.766 253.759,-550.794"/>
<polygon fill="black" stroke="black" points="260.354,-545.308 251.671,-551.379 262.245,-552.047 260.354,-545.308"/>
</g>
<!-- YB2MM -->
<g id="node50" class="node"><title>YB2MM</title>
<ellipse fill="palegreen" stroke="black" cx="475.557" cy="-541.168" rx="46.18" ry="18"/>
<text text-anchor="middle" x="475.557" y="-535.568" font-family="Times,serif" font-size="14.00">YB2MM</text>
</g>
<!-- YB2MM&#45;&gt;BG9DYJ -->
<g id="edge68" class="edge"><title>YB2MM&#45;&gt;BG9DYJ</title>
<path fill="none" stroke="black" d="M473.994,-522.92C473.767,-520.267 473.528,-517.486 473.289,-514.691"/>
<polygon fill="black" stroke="black" points="476.776,-514.387 472.435,-504.722 469.801,-514.984 476.776,-514.387"/>
</g>
<!-- YB2MM&#45;&gt;BH3SCC -->
<g id="edge70" class="edge"><title>YB2MM&#45;&gt;BH3SCC</title>
<path fill="none" stroke="black" d="M462.017,-558.629C453.881,-569.121 443.385,-582.657 434.331,-594.332"/>
<polygon fill="black" stroke="black" points="431.411,-592.387 428.049,-602.434 436.943,-596.677 431.411,-592.387"/>
</g>
<!-- YB2MM&#45;&gt;F5JQQ -->
<g id="edge72" class="edge"><title>YB2MM&#45;&gt;F5JQQ</title>
<path fill="none" stroke="black" d="M491.447,-558.468C500.889,-568.748 513.007,-581.942 523.384,-593.24"/>
<polygon fill="black" stroke="black" points="520.893,-595.702 530.235,-600.699 526.048,-590.966 520.893,-595.702"/>
</g>
<!-- YB2MM&#45;&gt;JA0QAO -->
<g id="edge74" class="edge"><title>YB2MM&#45;&gt;JA0QAO</title>
<path fill="none" stroke="black" d="M501.942,-526.183C504.854,-524.529 507.853,-522.826 510.853,-521.122"/>
<polygon fill="black" stroke="black" points="512.805,-524.039 519.772,-516.057 509.348,-517.952 512.805,-524.039"/>
</g>
<!-- YB2MM&#45;&gt;JA5UIM -->
<g id="edge76" class="edge"><title>YB2MM&#45;&gt;JA5UIM</title>
<path fill="none" stroke="black" d="M521.11,-544.65C521.192,-544.656 521.275,-544.662 521.357,-544.668"/>
<polygon fill="black" stroke="black" points="511.365,-547.411 521.604,-544.687 511.901,-540.432 511.365,-547.411"/>
</g>
<!-- YB2MM&#45;&gt;JE3EZK -->
<g id="edge78" class="edge"><title>YB2MM&#45;&gt;JE3EZK</title>
<path fill="none" stroke="black" d="M474.245,-522.905C472.996,-505.535 471.099,-479.143 469.653,-459.017"/>
<polygon fill="black" stroke="black" points="473.131,-458.585 468.923,-448.862 466.149,-459.087 473.131,-458.585"/>
</g>
<!-- YB2MM&#45;&gt;JH4GXE -->
<g id="edge80" class="edge"><title>YB2MM&#45;&gt;JH4GXE</title>
<path fill="none" stroke="black" d="M447.166,-555.39C447.118,-555.414 447.069,-555.439 447.021,-555.463"/>
<polygon fill="black" stroke="black" points="454.249,-547.924 446.876,-555.535 457.387,-554.183 454.249,-547.924"/>
</g>
<!-- YB2MM&#45;&gt;JH7OHS -->
<g id="edge82" class="edge"><title>YB2MM&#45;&gt;JH7OHS</title>
<path fill="none" stroke="black" d="M489.603,-523.601C498.485,-512.492 510.112,-497.951 519.989,-485.598"/>
<polygon fill="black" stroke="black" points="522.98,-487.46 526.492,-477.464 517.513,-483.089 522.98,-487.46"/>
</g>
<!-- YB2MM&#45;&gt;JQ2MPJ -->
<g id="edge84" class="edge"><title>YB2MM&#45;&gt;JQ2MPJ</title>
<path fill="none" stroke="black" d="M467.127,-558.929C464.134,-565.234 460.695,-572.478 457.424,-579.369"/>
<polygon fill="black" stroke="black" points="454.251,-577.891 453.125,-588.426 460.575,-580.893 454.251,-577.891"/>
</g>
<!-- YB2MM&#45;&gt;OE6ATD -->
<g id="edge96" class="edge"><title>YB2MM&#45;&gt;OE6ATD</title>
<path fill="none" stroke="black" d="M459.699,-524.055C459.591,-523.939 459.484,-523.823 459.376,-523.707"/>
<polygon fill="black" stroke="black" points="463.877,-523.415 454.513,-518.459 458.743,-528.173 463.877,-523.415"/>
</g>
<!-- YB2MM&#45;&gt;R3FO -->
<g id="edge98" class="edge"><title>YB2MM&#45;&gt;R3FO</title>
<path fill="none" stroke="black" d="M515.2,-531.801C515.246,-531.79 515.292,-531.779 515.338,-531.768"/>
<polygon fill="black" stroke="black" points="506.55,-537.447 515.475,-531.736 504.936,-530.635 506.55,-537.447"/>
</g>
<!-- YB2MM&#45;&gt;R9LM -->
<g id="edge100" class="edge"><title>YB2MM&#45;&gt;R9LM</title>
<path fill="none" stroke="black" d="M450.179,-525.772C438.628,-518.764 424.835,-510.397 412.605,-502.977"/>
<polygon fill="black" stroke="black" points="414.396,-499.97 404.031,-497.776 410.765,-505.955 414.396,-499.97"/>
</g>
<!-- YB2MM&#45;&gt;RW6AB -->
<g id="edge102" class="edge"><title>YB2MM&#45;&gt;RW6AB</title>
<path fill="none" stroke="black" d="M452.74,-557.079C446.163,-561.665 438.875,-566.747 431.89,-571.618"/>
<polygon fill="black" stroke="black" points="429.482,-569.03 423.281,-577.621 433.486,-574.772 429.482,-569.03"/>
</g>
<!-- YB2MM&#45;&gt;RX9U -->
<g id="edge104" class="edge"><title>YB2MM&#45;&gt;RX9U</title>
<path fill="none" stroke="black" d="M495.99,-557.422C497.801,-558.863 499.652,-560.336 501.508,-561.812"/>
<polygon fill="black" stroke="black" points="499.554,-564.73 509.559,-568.217 503.912,-559.252 499.554,-564.73"/>
</g>
<!-- YB2MM&#45;&gt;US1IL -->
<g id="edge106" class="edge"><title>YB2MM&#45;&gt;US1IL</title>
<path fill="none" stroke="black" d="M480.076,-559.214C480.343,-560.284 480.616,-561.371 480.89,-562.468"/>
<polygon fill="black" stroke="black" points="477.537,-563.487 483.361,-572.338 484.328,-561.787 477.537,-563.487"/>
</g>
<!-- YT3GTI -->
<g id="node55" class="node"><title>YT3GTI</title>
<ellipse fill="palegreen" stroke="black" cx="415.911" cy="-528.354" rx="44.2418" ry="18"/>
<text text-anchor="middle" x="415.911" y="-522.754" font-family="Times,serif" font-size="14.00">YT3GTI</text>
</g>
<!-- YB2MM&#45;&gt;YT3GTI -->
<g id="edge112" class="edge"><title>YB2MM&#45;&gt;YT3GTI</title>
<path fill="none" stroke="black" d="M434.783,-532.409C434.701,-532.391 434.619,-532.373 434.538,-532.356"/>
<polygon fill="black" stroke="black" points="444.807,-530.985 434.293,-532.303 443.334,-537.829 444.807,-530.985"/>
</g>
<!-- KI8JP -->
<g id="node83" class="node"><title>KI8JP</title>
<ellipse fill="bisque" stroke="black" cx="570.37" cy="-522.074" rx="35.2759" ry="18"/>
<text text-anchor="middle" x="570.37" y="-516.474" font-family="Times,serif" font-size="14.00">KI8JP</text>
</g>
<!-- YB2MM&#45;&gt;KI8JP -->
<g id="edge94" class="edge"><title>YB2MM&#45;&gt;KI8JP</title>
<path fill="none" stroke="black" d="M521.518,-538.787C525.504,-538.015 529.504,-537.174 533.405,-536.289"/>
<polygon fill="black" stroke="black" points="534.53,-539.618 543.422,-533.856 532.878,-532.815 534.53,-539.618"/>
</g>
<!-- K2OF -->
<g id="node112" class="node"><title>K2OF</title>
<ellipse fill="bisque" stroke="black" cx="392.754" cy="-556.93" rx="35.2759" ry="18"/>
<text text-anchor="middle" x="392.754" y="-551.33" font-family="Times,serif" font-size="14.00">K2OF</text>
</g>
<!-- YB2MM&#45;&gt;K2OF -->
<g id="edge86" class="edge"><title>YB2MM&#45;&gt;K2OF</title>
<path fill="none" stroke="black" d="M433.67,-549.141C433.51,-549.172 433.349,-549.202 433.189,-549.233"/>
<polygon fill="black" stroke="black" points="435.185,-545.29 426.016,-550.598 436.494,-552.166 435.185,-545.29"/>
</g>
<!-- K2OS -->
<g id="node114" class="node"><title>K2OS</title>
<ellipse fill="bisque" stroke="black" cx="560.909" cy="-573.92" rx="35.2759" ry="18"/>
<text text-anchor="middle" x="560.909" y="-568.32" font-family="Times,serif" font-size="14.00">K2OS</text>
</g>
<!-- YB2MM&#45;&gt;K2OS -->
<g id="edge88" class="edge"><title>YB2MM&#45;&gt;K2OS</title>
<path fill="none" stroke="black" d="M508.801,-553.924C513.47,-555.716 518.298,-557.568 523.045,-559.39"/>
<polygon fill="black" stroke="black" points="522.009,-562.741 532.599,-563.056 524.517,-556.206 522.009,-562.741"/>
</g>
<!-- K5CKS -->
<g id="node116" class="node"><title>K5CKS</title>
<ellipse fill="bisque" stroke="black" cx="478.148" cy="-634.02" rx="41.4365" ry="18"/>
<text text-anchor="middle" x="478.148" y="-628.42" font-family="Times,serif" font-size="14.00">K5CKS</text>
</g>
<!-- YB2MM&#45;&gt;K5CKS -->
<g id="edge90" class="edge"><title>YB2MM&#45;&gt;K5CKS</title>
<path fill="none" stroke="black" d="M476.069,-559.513C476.435,-572.611 476.934,-590.488 477.351,-605.447"/>
<polygon fill="black" stroke="black" points="473.86,-605.815 477.638,-615.714 480.857,-605.62 473.86,-605.815"/>
</g>
<!-- K8OK -->
<g id="node118" class="node"><title>K8OK</title>
<ellipse fill="bisque" stroke="black" cx="448.159" cy="-637.057" rx="36.1837" ry="18"/>
<text text-anchor="middle" x="448.159" y="-631.457" font-family="Times,serif" font-size="14.00">K8OK</text>
</g>
<!-- YB2MM&#45;&gt;K8OK -->
<g id="edge92" class="edge"><title>YB2MM&#45;&gt;K8OK</title>
<path fill="none" stroke="black" d="M470.404,-559.204C466.386,-573.267 460.734,-593.046 456.133,-609.148"/>
<polygon fill="black" stroke="black" points="452.671,-608.525 453.289,-619.102 459.402,-610.448 452.671,-608.525"/>
</g>
<!-- WA1ZKN -->
<g id="node127" class="node"><title>WA1ZKN</title>
<ellipse fill="bisque" stroke="black" cx="505.34" cy="-622.711" rx="50.5943" ry="18"/>
<text text-anchor="middle" x="505.34" y="-617.111" font-family="Times,serif" font-size="14.00">WA1ZKN</text>
</g>
<!-- YB2MM&#45;&gt;WA1ZKN -->
<g id="edge108" class="edge"><title>YB2MM&#45;&gt;WA1ZKN</title>
<path fill="none" stroke="black" d="M482.167,-559.265C486.023,-569.822 490.965,-583.353 495.294,-595.206"/>
<polygon fill="black" stroke="black" points="492.031,-596.472 498.749,-604.665 498.606,-594.071 492.031,-596.472"/>
</g>
<!-- WB8SIG -->
<g id="node129" class="node"><title>WB8SIG</title>
<ellipse fill="bisque" stroke="black" cx="505.524" cy="-487.275" rx="46.4721" ry="18"/>
<text text-anchor="middle" x="505.524" y="-481.675" font-family="Times,serif" font-size="14.00">WB8SIG</text>
</g>
<!-- YB2MM&#45;&gt;WB8SIG -->
<g id="edge110" class="edge"><title>YB2MM&#45;&gt;WB8SIG</title>
<path fill="none" stroke="black" d="M485.37,-523.521C487.06,-520.482 488.849,-517.263 490.638,-514.048"/>
<polygon fill="black" stroke="black" points="493.787,-515.587 495.587,-505.146 487.669,-512.185 493.787,-515.587"/>
</g>
<!-- YC1GJL -->
<g id="node51" class="node"><title>YC1GJL</title>
<ellipse fill="palegreen" stroke="black" cx="597.155" cy="-308.067" rx="45.3674" ry="18"/>
<text text-anchor="middle" x="597.155" y="-302.467" font-family="Times,serif" font-size="14.00">YC1GJL</text>
</g>
<!-- YC1OVY -->
<g id="node52" class="node"><title>YC1OVY</title>
<ellipse fill="palegreen" stroke="black" cx="380.78" cy="-387.216" rx="50.3032" ry="18"/>
<text text-anchor="middle" x="380.78" y="-381.616" font-family="Times,serif" font-size="14.00">YC1OVY</text>
</g>
<!-- YC1OVY&#45;&gt;BA7IO -->
<g id="edge114" class="edge"><title>YC1OVY&#45;&gt;BA7IO</title>
<path fill="none" stroke="black" d="M338.691,-377.221C338.608,-377.201 338.524,-377.181 338.44,-377.161"/>
<polygon fill="black" stroke="black" points="341.217,-374.223 330.679,-375.318 339.6,-381.034 341.217,-374.223"/>
</g>
<!-- YC1OVY&#45;&gt;BH7ACO -->
<g id="edge116" class="edge"><title>YC1OVY&#45;&gt;BH7ACO</title>
<path fill="none" stroke="black" d="M396.885,-370.145C399.116,-367.78 401.442,-365.315 403.768,-362.849"/>
<polygon fill="black" stroke="black" points="406.338,-365.225 410.654,-355.55 401.246,-360.422 406.338,-365.225"/>
</g>
<!-- YC1OVY&#45;&gt;JA1CHY -->
<g id="edge118" class="edge"><title>YC1OVY&#45;&gt;JA1CHY</title>
<path fill="none" stroke="black" d="M376.43,-369.125C375.194,-363.984 373.818,-358.261 372.475,-352.678"/>
<polygon fill="black" stroke="black" points="375.874,-351.842 370.133,-342.937 369.068,-353.478 375.874,-351.842"/>
</g>
<!-- YC1OVY&#45;&gt;JE3EZK -->
<g id="edge120" class="edge"><title>YC1OVY&#45;&gt;JE3EZK</title>
<path fill="none" stroke="black" d="M410.176,-401.895C416.67,-405.137 423.633,-408.614 430.392,-411.989"/>
<polygon fill="black" stroke="black" points="428.907,-415.159 439.418,-416.496 432.034,-408.897 428.907,-415.159"/>
</g>
<!-- YC1OVY&#45;&gt;JH1ACA -->
<g id="edge122" class="edge"><title>YC1OVY&#45;&gt;JH1ACA</title>
<path fill="none" stroke="black" d="M383.78,-369.148C385.348,-359.709 387.301,-347.948 389.059,-337.356"/>
<polygon fill="black" stroke="black" points="392.546,-337.723 390.732,-327.285 385.641,-336.576 392.546,-337.723"/>
</g>
<!-- YC1OVY&#45;&gt;JH3CUL -->
<g id="edge124" class="edge"><title>YC1OVY&#45;&gt;JH3CUL</title>
<path fill="none" stroke="black" d="M348.045,-401.002C346.843,-401.508 345.633,-402.018 344.421,-402.528"/>
<polygon fill="black" stroke="black" points="343.004,-399.327 335.147,-406.434 345.721,-405.778 343.004,-399.327"/>
</g>
<!-- YC1OVY&#45;&gt;JH5EZJ -->
<g id="edge126" class="edge"><title>YC1OVY&#45;&gt;JH5EZJ</title>
<path fill="none" stroke="black" d="M356.17,-371.365C356.125,-371.336 356.079,-371.306 356.034,-371.277"/>
<polygon fill="black" stroke="black" points="366.202,-373.665 355.898,-371.19 362.41,-379.55 366.202,-373.665"/>
</g>
<!-- YC1OVY&#45;&gt;R0WBG -->
<g id="edge128" class="edge"><title>YC1OVY&#45;&gt;R0WBG</title>
<path fill="none" stroke="black" d="M390.137,-369.44C396.949,-356.5 406.292,-338.749 414.01,-324.087"/>
<polygon fill="black" stroke="black" points="417.244,-325.458 418.804,-314.979 411.049,-322.198 417.244,-325.458"/>
</g>
<!-- YC1OVY&#45;&gt;R9LM -->
<g id="edge130" class="edge"><title>YC1OVY&#45;&gt;R9LM</title>
<path fill="none" stroke="black" d="M380.794,-405.367C380.805,-419.52 380.821,-439.424 380.833,-455.629"/>
<polygon fill="black" stroke="black" points="377.333,-455.649 380.841,-465.646 384.333,-455.643 377.333,-455.649"/>
</g>
<!-- YC1OVY&#45;&gt;VE3XN -->
<g id="edge132" class="edge"><title>YC1OVY&#45;&gt;VE3XN</title>
<path fill="none" stroke="black" d="M332.496,-392.116C332.427,-392.123 332.359,-392.13 332.291,-392.137"/>
<polygon fill="black" stroke="black" points="341.679,-387.662 332.085,-392.158 342.389,-394.626 341.679,-387.662"/>
</g>
<!-- YC1OVY&#45;&gt;W8VS -->
<g id="edge134" class="edge"><title>YC1OVY&#45;&gt;W8VS</title>
<path fill="none" stroke="black" d="M366.468,-369.672C357.665,-358.879 346.246,-344.882 336.526,-332.966"/>
<polygon fill="black" stroke="black" points="339.155,-330.651 330.122,-325.115 333.731,-335.076 339.155,-330.651"/>
</g>
<!-- YE1AR -->
<g id="node53" class="node"><title>YE1AR</title>
<ellipse fill="palegreen" stroke="black" cx="641.817" cy="-148.639" rx="42.2295" ry="18"/>
<text text-anchor="middle" x="641.817" y="-143.039" font-family="Times,serif" font-size="14.00">YE1AR</text>
</g>
<!-- YF0TUR -->
<g id="node54" class="node"><title>YF0TUR</title>
<ellipse fill="palegreen" stroke="black" cx="447.065" cy="-213.826" rx="47.2852" ry="18"/>
<text text-anchor="middle" x="447.065" y="-208.226" font-family="Times,serif" font-size="14.00">YF0TUR</text>
</g>
<!-- YF0TUR&#45;&gt;R0WBG -->
<g id="edge136" class="edge"><title>YF0TUR&#45;&gt;R0WBG</title>
<path fill="none" stroke="black" d="M442.959,-231.925C440.479,-242.856 437.268,-257.012 434.469,-269.35"/>
<polygon fill="black" stroke="black" points="431.039,-268.648 432.24,-279.175 437.866,-270.197 431.039,-268.648"/>
</g>
<!-- K6EIE -->
<g id="node72" class="node"><title>K6EIE</title>
<ellipse fill="bisque" stroke="black" cx="558.947" cy="-380.786" rx="37.2809" ry="18"/>
<text text-anchor="middle" x="558.947" y="-375.186" font-family="Times,serif" font-size="14.00">K6EIE</text>
</g>
<!-- K6EIE&#45;&gt;BD7JMR -->
<g id="edge30" class="edge"><title>K6EIE&#45;&gt;BD7JMR</title>
<path fill="none" stroke="black" d="M579.973,-365.587C585.062,-361.908 590.603,-357.902 596.032,-353.978"/>
<polygon fill="black" stroke="black" points="598.333,-356.633 604.387,-347.938 594.232,-350.96 598.333,-356.633"/>
</g>
<!-- K6EIE&#45;&gt;JA0HZR -->
<g id="edge32" class="edge"><title>K6EIE&#45;&gt;JA0HZR</title>
<path fill="none" stroke="black" d="M559.778,-362.727C560.275,-351.929 560.917,-337.977 561.479,-325.755"/>
<polygon fill="black" stroke="black" points="564.984,-325.732 561.947,-315.581 557.991,-325.41 564.984,-325.732"/>
</g>
<!-- K6EIE&#45;&gt;JA4FAK -->
<g id="edge34" class="edge"><title>K6EIE&#45;&gt;JA4FAK</title>
<path fill="none" stroke="black" d="M594.214,-374.256C594.309,-374.239 594.404,-374.221 594.499,-374.204"/>
<polygon fill="black" stroke="black" points="594.218,-377.815 603.413,-372.553 592.943,-370.932 594.218,-377.815"/>
</g>
<!-- K6EIE&#45;&gt;JE3EZK -->
<g id="edge36" class="edge"><title>K6EIE&#45;&gt;JE3EZK</title>
<path fill="none" stroke="black" d="M533.988,-394.39C524.429,-399.601 513.333,-405.649 502.982,-411.291"/>
<polygon fill="black" stroke="black" points="501.24,-408.254 494.134,-416.113 504.59,-414.4 501.24,-408.254"/>
</g>
<!-- K6EIE&#45;&gt;JH7OHS -->
<g id="edge38" class="edge"><title>K6EIE&#45;&gt;JH7OHS</title>
<path fill="none" stroke="black" d="M554.713,-398.809C552.375,-408.761 549.421,-421.334 546.796,-432.507"/>
<polygon fill="black" stroke="black" points="543.385,-431.724 544.505,-442.259 550.199,-433.325 543.385,-431.724"/>
</g>
<!-- K6EIE&#45;&gt;JI1GVS -->
<g id="edge40" class="edge"><title>K6EIE&#45;&gt;JI1GVS</title>
<path fill="none" stroke="black" d="M593.583,-387.787C596.837,-388.444 600.174,-389.119 603.524,-389.796"/>
<polygon fill="black" stroke="black" points="603.051,-393.271 613.547,-391.821 604.438,-386.41 603.051,-393.271"/>
</g>
<!-- K6EIE&#45;&gt;YC1GJL -->
<g id="edge42" class="edge"><title>K6EIE&#45;&gt;YC1GJL</title>
<path fill="none" stroke="black" d="M568.196,-363.183C572.668,-354.671 578.133,-344.271 583.105,-334.807"/>
<polygon fill="black" stroke="black" points="586.306,-336.241 587.859,-325.761 580.109,-332.985 586.306,-336.241"/>
</g>
<!-- KD1DT -->
<g id="node80" class="node"><title>KD1DT</title>
<ellipse fill="bisque" stroke="black" cx="762.35" cy="-298.639" rx="42.5278" ry="18"/>
<text text-anchor="middle" x="762.35" y="-293.039" font-family="Times,serif" font-size="14.00">KD1DT</text>
</g>
<!-- N2WIE -->
<g id="node82" class="node"><title>N2WIE</title>
<ellipse fill="bisque" stroke="black" cx="833.56" cy="-288" rx="41.1025" ry="18"/>
<text text-anchor="middle" x="833.56" y="-282.4" font-family="Times,serif" font-size="14.00">N2WIE</text>
</g>
<!-- KD1DT&#45;&gt;N2WIE -->
<g id="edge44" class="edge"><title>KD1DT&#45;&gt;N2WIE</title>
<path fill="none" stroke="black" d="M802.947,-292.574C803.01,-292.564 803.072,-292.555 803.135,-292.546"/>
<polygon fill="black" stroke="black" points="793.95,-297.461 803.322,-292.518 792.913,-290.538 793.95,-297.461"/>
</g>
<!-- KI8JP&#45;&gt;YB2MM -->
<g id="edge46" class="edge"><title>KI8JP&#45;&gt;YB2MM</title>
<path fill="none" stroke="black" d="M535.125,-522.539C529.363,-523.479 523.345,-524.615 517.443,-525.871"/>
<polygon fill="black" stroke="black" points="516.661,-522.46 507.684,-528.087 518.211,-529.286 516.661,-522.46"/>
</g>
<!-- N0FW -->
<g id="node85" class="node"><title>N0FW</title>
<ellipse fill="bisque" stroke="black" cx="713.027" cy="-138" rx="36.9881" ry="18"/>
<text text-anchor="middle" x="713.027" y="-132.4" font-family="Times,serif" font-size="14.00">N0FW</text>
</g>
<!-- N0FW&#45;&gt;YE1AR -->
<g id="edge48" class="edge"><title>N0FW&#45;&gt;YE1AR</title>
<path fill="none" stroke="black" d="M677.005,-143.382C676.936,-143.392 676.867,-143.403 676.798,-143.413"/>
<polygon fill="black" stroke="black" points="685.963,-138.5 676.591,-143.444 687,-145.424 685.963,-138.5"/>
</g>
<!-- W0WP -->
<g id="node87" class="node"><title>W0WP</title>
<ellipse fill="bisque" stroke="black" cx="334.704" cy="-776.206" rx="39.1979" ry="18"/>
<text text-anchor="middle" x="334.704" y="-770.606" font-family="Times,serif" font-size="14.00">W0WP</text>
</g>
<!-- KG2NV -->
<g id="node89" class="node"><title>KG2NV</title>
<ellipse fill="bisque" stroke="black" cx="378.599" cy="-833.625" rx="43.1445" ry="18"/>
<text text-anchor="middle" x="378.599" y="-828.025" font-family="Times,serif" font-size="14.00">KG2NV</text>
</g>
<!-- W0WP&#45;&gt;KG2NV -->
<g id="edge50" class="edge"><title>W0WP&#45;&gt;KG2NV</title>
<path fill="none" stroke="black" d="M347.874,-793.434C351.433,-798.09 355.361,-803.228 359.185,-808.23"/>
<polygon fill="black" stroke="black" points="356.585,-810.591 365.439,-816.41 362.146,-806.34 356.585,-810.591"/>
</g>
<!-- N8LSU -->
<g id="node91" class="node"><title>N8LSU</title>
<ellipse fill="bisque" stroke="black" cx="310.747" cy="-708" rx="41.1237" ry="18"/>
<text text-anchor="middle" x="310.747" y="-702.4" font-family="Times,serif" font-size="14.00">N8LSU</text>
</g>
<!-- W0WP&#45;&gt;N8LSU -->
<g id="edge52" class="edge"><title>W0WP&#45;&gt;N8LSU</title>
<path fill="none" stroke="black" d="M328.41,-758.286C325.981,-751.37 323.145,-743.298 320.467,-735.672"/>
<polygon fill="black" stroke="black" points="323.699,-734.313 317.083,-726.038 317.094,-736.632 323.699,-734.313"/>
</g>
<!-- W9IIX -->
<g id="node92" class="node"><title>W9IIX</title>
<ellipse fill="bisque" stroke="black" cx="725.765" cy="-566.206" rx="38.0788" ry="18"/>
<text text-anchor="middle" x="725.765" y="-560.606" font-family="Times,serif" font-size="14.00">W9IIX</text>
</g>
<!-- KG4ZGZ -->
<g id="node94" class="node"><title>KG4ZGZ</title>
<ellipse fill="bisque" stroke="black" cx="769.66" cy="-623.625" rx="48.3764" ry="18"/>
<text text-anchor="middle" x="769.66" y="-618.025" font-family="Times,serif" font-size="14.00">KG4ZGZ</text>
</g>
<!-- W9IIX&#45;&gt;KG4ZGZ -->
<g id="edge54" class="edge"><title>W9IIX&#45;&gt;KG4ZGZ</title>
<path fill="none" stroke="black" d="M738.935,-583.434C742.429,-588.005 746.279,-593.041 750.037,-597.957"/>
<polygon fill="black" stroke="black" points="747.342,-600.194 756.196,-606.013 752.903,-595.942 747.342,-600.194"/>
</g>
<!-- W4INK -->
<g id="node96" class="node"><title>W4INK</title>
<ellipse fill="bisque" stroke="black" cx="701.808" cy="-498" rx="42.2153" ry="18"/>
<text text-anchor="middle" x="701.808" y="-492.4" font-family="Times,serif" font-size="14.00">W4INK</text>
</g>
<!-- W9IIX&#45;&gt;W4INK -->
<g id="edge56" class="edge"><title>W9IIX&#45;&gt;W4INK</title>
<path fill="none" stroke="black" d="M719.471,-548.286C717.041,-541.37 714.206,-533.298 711.528,-525.672"/>
<polygon fill="black" stroke="black" points="714.76,-524.313 708.144,-516.038 708.155,-526.632 714.76,-524.313"/>
</g>
</g>
</svg>
